# xmcd
#
# Track frame offsets:
#	150
#	18932
#	38235
#	52582
#	83470
#	104970
#	123552
#	140460
#	158890
#	176180
#	201980
#	220325
#
# Disc length: 3296 seconds
# Revision: 2
# Processed by: cddbd v1.5.2PL0 Copyright (c) Steve Scherf et al.
# Submitted via: dBpowerAMP V12.0
#
DISCID=a70cde0c
DTITLE=Various Artist - Z. Zelebration - A Tribute to The Late Great Z.Z. Hill
DYEAR=1994
DGENRE=Soul
TTITLE0=Latimore - Cheatin' in The Next Room
TTITLE1=Shirley Brown - I'm Gonna Stop You From Givin' me The Blues
TTITLE2=Artie White - Three Into Two Won't go
TTITLE3=Bobby "Blue" Bland - I'm a Blues Man
TTITLE4=Dorothy Moore and Z.Z. Hill - Please Don't Let Our Good Thing End
TTITLE5=Beat Daddys, The - Shade Tree Mechanic
TTITLE6=Denise LaSalle - Right Arm For Your Love
TTITLE7=Little Milton - It's Been so Long
TTITLE8=Johnnie Taylor - Someone Else is Steppin' in
TTITLE9=Mike Griffin - Open House at my House
TTITLE10=Poonanny - Bump And Grind
TTITLE11=Z.Z.'s Friends - Down Home Blues
EXTD=
EXTT0=
EXTT1=
EXTT2=
EXTT3=
EXTT4=
EXTT5=
EXTT6=
EXTT7=
EXTT8=
EXTT9=
EXTT10=
EXTT11=
PLAYORDER=
